# AST/ASF file generated using VICON BodyLanguage
# -----------------------------------------------
:version 1.10
:name VICON
:units
  mass 1.0
  length 0.45
  angle deg
:documentation
   .ast/.asf automatically generated from VICON data using
   VICON BodyBuilder and BodyLanguage model FoxedUp or BRILLIANT.MOD
:root
   order TX TY TZ RX RY RZ
   axis XYZ
   position 0 0 0  
   orientation 0 0 0 
:bonedata
  begin
     id 1 
     name lhipjoint
     direction 0.575328 -0.747301 0.332475 
     length 2.40933 
     axis 0 0 0  XYZ
  end
  begin
     id 2 
     name lfemur
     direction 0.34202 -0.939693 0  
     length 7.31453  
     axis 0 0 20  XYZ
    dof rx ry rz
    limits (-160.0 20.0)
           (-70.0 70.0)
           (-60.0 70.0)
  end
  begin
     id 3 
     name ltibia
     direction 0.34202 -0.939693 0   
     length 7.82185   
     axis 0 0 20   XYZ
    dof rx
    limits (-10.0 170.0)
  end
  begin
     id 4 
     name lfoot
     direction 0.0795993 -0.218697 0.972541   
     length 2.19173   
     axis -90 7.62852e-016 20   XYZ
    dof rx rz
    limits (-45.0 90.0)
           (-70.0 20.0)
  end
  begin
     id 5 
     name ltoes
     direction 1.53537e-011 -4.21894e-011 1   
     length 1.10023   
     axis -90 7.62852e-016 20   XYZ
    dof rx
    limits (-90.0 20.0)
  end
  begin
     id 6 
     name rhipjoint
     direction -0.513884 -0.783789 0.348708   
     length 2.29716  
     axis 0 0 0  XYZ 
  end
  begin
     id 7 
     name rfemur
     direction -0.34202 -0.939693 0   
     length 7.59573   
     axis 0 0 -20   XYZ
    dof rx ry rz
    limits (-160.0 20.0)
           (-70.0 70.0)
           (-70.0 60.0)
  end
  begin
     id 8 
     name rtibia
     direction -0.34202 -0.939693 0   
     length 7.66402   
     axis 0 0 -20   XYZ
    dof rx
    limits (-10.0 170.0)
 end
 begin
     id 9 
     name rfoot
     direction -0.137793 -0.378584 0.915253   
     length 2.27056  
     axis -90 -7.62852e-016 -20   XYZ
    dof rx rz
    limits (-45.0 90.0)
           (-20.0 70.0)
  end
  begin
     id 10 
     name rtoes
     direction -1.53493e-011 -4.22159e-011 1   
     length 1.11766   
     axis -90 -7.62852e-016 -20   XYZ
    dof rx
    limits (-90.0 20.0)
  end
  begin
     id 11 
     name lowerback
     direction -0.00732775 0.998356 -0.05685   
     length 2.16513   
     axis 0 0 0   XYZ
    dof rx ry rz
    limits (-20.0 45.0)
           (-30.0 30.0)
           (-30.0 30.0)
  end
  begin
     id 12 
     name upperback
     direction 0.0218081 0.999627 -0.0164647   
     length 2.16755   
     axis 0 0 0   XYZ
    dof rx ry rz
    limits (-20.0 45.0)
           (-30.0 30.0)
           (-30.0 30.0)
  end
  begin
     id 13 
     name thorax
     direction 0.02365 0.999661 0.0108914   
     length 2.16932   
     axis 0 0 0   XYZ
    dof rx ry rz
    limits (-20.0 45.0)
           (-30.0 30.0)
           (-30.0 30.0)
  end
  begin
     id 14 
     name lowerneck
     direction -0.0523929 0.978385 0.200044   
     length 1.63877   
     axis 0 0 0   XYZ
    dof rx ry rz
    limits (-20.0 45.0)
           (-30.0 30.0)
           (-30.0 30.0)
  end
  begin
     id 15 
     name upperneck
     direction 0.0448674 0.981321 -0.187074   
     length 1.69014   
     axis 0 0 0   XYZ
    dof rx ry rz
    limits (-20.0 45.0)
           (-30.0 30.0)
           (-30.0 30.0)
  end
  begin
     id 16
     name head
     direction 0.0199089 0.996118 -0.0857429  
     length 1.70094  
     axis 0 0 0   XYZ
    dof rx ry rz
    limits (-20.0 45.0)
           (-30.0 30.0)
           (-30.0 30.0)
  end
  begin
     id 17 
     name lclavicle
     direction 0.940366 0.30191 -0.156722  
     length 3.37521  
     axis 0 0 0   XYZ
    dof ry rz
    limits (-20.0 10.0)
           (0.0 20.0)
  end
  begin
     id 18 
     name lhumerus
     direction 1 -4.4897e-011 -1.7911e-027   
     length 5.25287   
     axis 180 -30 -90   XYZ
    dof rx ry rz
    limits (-60.0 90.0)
           (-90.0 90.0)
           (-90.0 90.0)
  end
  begin
     id 19
     name lradius
     direction 1 -4.48951e-011 1.04424e-027   
     length 3.51014   
     axis 180 -30 -90   XYZ
    dof rx
    limits (-10.0 170.0)
  end
  begin
     id 20
     name lwrist
     direction 1 -4.48997e-011 -9.5942e-028   
     length 1.75507   
     axis 8.48502e-016 90 90   XYZ
    dof ry
    limits (-180.0 0.0)
 end
  begin
     id 21 
     name lhand
     direction 1 -4.48831e-011 -1.90777e-027   
     length 0.706179   
     axis 1.22306e-015 90 90   XYZ
    dof rx rz
    limits (-90.0 90.0)
           (-45.0 45.0)
  end
  begin
     id 22 
     name lfingers
     direction 1 -4.49108e-011 -3.85244e-027   
     length 0.569339   
     axis 2.44611e-015 90 90   XYZ
    dof rx
    limits (0.0 90.0)
  end
  begin
     id 23
     name lthumb
     direction 0.707107 -6.34953e-011 0.707107   
     length 0.817461   
     axis -90 45 -1.62303e-014   XYZ
    dof rx rz
    limits (-45.0 45.0)
           (-45.0 45.0)
  end
  begin
     id 24 
     name rclavicle
     direction -0.905329 0.382405 -0.184787   
     length 3.30787  
     axis 0 0 0   XYZ 
    dof ry rz
    limits (-10.0 20.0)
           (-20.0 0.0)
  end
  begin
     id 25 
     name rhumerus
     direction -1 -4.48953e-011 -9.15316e-029  
     length 5.28721   
     axis 180 30 90   XYZ
    dof rx ry rz
    limits (-90.0 60.0)
           (-90.0 90.0)
           (-90.0 90.0)
  end
  begin
     id 26 
     name rradius
     direction -1 -4.48987e-011 9.37824e-028   
     length 3.50544   
     axis 180 30 90   XYZ
    dof rx
    limits (-10.0 170.0)
  end
  begin
     id 27 
     name rwrist
     direction -1 -4.48967e-011 -9.58414e-028   
     length 1.75272   
     axis 8.48502e-016 -90 -90   XYZ
    dof ry
    limits (-180.0 0.0)
  end
  begin
     id 28
     name rhand
     direction -1 -4.48904e-011 -1.91266e-027   
     length 0.884996   
     axis 1.22306e-015 -90 -90   XYZ
    dof rx rz
    limits (-90.0 90.0)
           (-45.0 45.0)
  end
  begin
     id 29
     name rfingers
     direction -1 -4.4909e-011 -3.85015e-027   
     length 0.713507   
     axis 2.44611e-015 -90 -90   XYZ
    dof rx
    limits (0.0 90.0)
  end
  begin
     id 30
     name rthumb
     direction -0.707107 -6.34853e-011 0.707107   
     length 1.02446   
     axis -90 -45 1.62303e-014   XYZ
    dof rx rz
    limits (-45.0 45.0)
           (-45.0 45.0)
  end
:hierarchy
  begin
    root lhipjoint rhipjoint lowerback
    lhipjoint lfemur
    lfemur ltibia
    ltibia lfoot
    lfoot ltoes
    rhipjoint rfemur
    rfemur rtibia
    rtibia rfoot
    rfoot rtoes
    lowerback upperback
    upperback thorax
    thorax lowerneck lclavicle rclavicle
    lowerneck upperneck
    upperneck head
    lclavicle lhumerus
    lhumerus lradius
    lradius lwrist
    lwrist lhand lthumb
    lhand lfingers
    rclavicle rhumerus
    rhumerus rradius
    rradius rwrist
    rwrist rhand rthumb
    rhand rfingers
  end

#!OML:ASF F:\twosubjects\two\Thursday\Session 1\justin.ASF
:FULLY-SPECIFIED
:DEGREES
152
root 20.6708 18.5533 4.54639 -5.9021 -83.4786 21.6583
lowerback 11.2678 -0.0569514 0.483883
upperback 5.91426 -0.260866 4.24788
thorax -0.121788 -0.303601 4.17792
lowerneck -15.7717 -2.31005 -8.4202
upperneck 33.9622 -4.80768 8.16525
head 14.7964 -2.34016 3.97893
rclavicle -1.82882e-014 -3.18055e-014
rhumerus 45.4436 24.0398 -36.2496
rradius 61.272
rwrist 7.48894
rhand -36.0189 24.4652
rfingers 7.12502
rthumb -9.12807 -5.3173
lclavicle -1.82882e-014 -3.18055e-014
lhumerus 41.0908 -28.3517 57.7033
lradius 55.2801
lwrist -23.2294
lhand -36.5845 63.5184
lfingers 7.12502
lthumb -9.67382 266.724
rfemur -28.7442 -3.40397 16.8081
rtibia 26.8171
rfoot -11.6851 -11.0067
rtoes -16.0409
lfemur -14.0256 3.78911 -19.5217
ltibia 8.61371
lfoot -7.32087 -1.81156
ltoes -7.54112
153
root 20.6855 18.5547 4.58426 -5.30706 -83.4083 21.0911
lowerback 11.326 -0.0208279 0.388688
upperback 5.93626 -0.224771 4.39994
thorax -0.130861 -0.292324 4.38909
lowerneck -15.8576 -2.38934 -8.57692
upperneck 33.839 -4.80359 8.06806
head 14.7611 -2.36267 3.96231
rclavicle -7.95139e-016 -2.70347e-014
rhumerus 45.2078 23.9837 -35.7615
rradius 61.7592
rwrist 7.16152
rhand -36.2178 24.0402
rfingers 7.12502
rthumb -9.31992 -5.73374
lclavicle -7.95139e-016 -2.70347e-014
lhumerus 41.1772 -28.3637 58.1264
lradius 55.4363
lwrist -23.0575
lhand -36.5338 64.0494
lfingers 7.12502
lthumb -9.62488 266.19
rfemur -28.7431 -3.5299 16.7446
rtibia 26.7005
rfoot -11.641 -10.6059
rtoes -15.3378
lfemur -14.0531 3.71622 -19.5532
ltibia 8.53318
lfoot -7.1134 -1.94383
ltoes -6.65982
154
root 20.6999 18.5572 4.62378 -4.16409 -83.5107 19.9751
lowerback 11.3786 -0.056654 0.344697
upperback 5.93795 -0.277932 4.53046
thorax -0.151819 -0.323744 4.55877
lowerneck -15.9639 -2.31977 -8.69063
upperneck 33.7674 -4.59469 7.95852
head 14.7275 -2.29717 3.96968
rclavicle -3.18055e-015 1.43125e-014
rhumerus 45.3542 24.0235 -35.1793
rradius 62.1915
rwrist 6.54704
rhand -36.3574 23.0502
rfingers 7.12502
rthumb -9.45469 -6.71769
lclavicle -3.18055e-015 1.43125e-014
lhumerus 41.2354 -28.065 58.469
lradius 55.3644
lwrist -22.6473
lhand -36.4587 63.6637
lfingers 7.12502
lthumb -9.5524 266.573
rfemur -28.7567 -3.36544 16.7214
rtibia 26.6222
rfoot -11.53 -10.1745
rtoes -14.5647
lfemur -14.1485 3.80624 -19.5182
ltibia 8.54091
lfoot -6.96386 -1.96671
ltoes -6.87408
155
root 20.7137 18.5626 4.66261 -4.00804 -83.6669 19.9413
lowerback 11.2556 -0.0428278 0.280211
upperback 5.92341 -0.266984 4.54032
thorax -0.100828 -0.319384 4.60304
lowerneck -16.0637 -2.21098 -8.72417
upperneck 33.687 -4.37187 7.90288
head 14.6858 -2.20827 3.98764
rclavicle -1.19271e-014 -1.74931e-014
rhumerus 45.4077 23.9573 -35.1545
rradius 62.2428
rwrist 6.36597
rhand -36.2398 22.5715
rfingers 7.12502
rthumb -9.34119 -7.20148
lclavicle -1.19271e-014 -1.74931e-014
lhumerus 41.2935 -28.0186 58.9561
lradius 55.2895
lwrist -22.4482
lhand -36.4288 63.7135
lfingers 7.12502
lthumb -9.52354 266.522
rfemur -28.9015 -3.31468 16.5959
rtibia 26.5655
rfoot -11.5778 -10.2936
rtoes -14.9932
lfemur -14.3272 3.94122 -19.6849
ltibia 8.57379
lfoot -7.10749 -1.96631
ltoes -7.3923
156
root 20.7284 18.568 4.70556 -3.86101 -83.749 19.9648
lowerback 11.0768 -0.0328225 0.113887
upperback 5.88087 -0.269718 4.65243
thorax -0.0459093 -0.325448 4.8145
lowerneck -16.0903 -2.17064 -8.76328
upperneck 33.5212 -4.17906 7.66656
head 14.5881 -2.15465 3.92155
rclavicle -4.77083e-015 -2.54444e-014
rhumerus 45.5748 24.0012 -35.1985
rradius 62.0108
rwrist 6.41102
rhand -36.2161 22.2976
rfingers 7.12502
rthumb -9.31836 -7.47641
lclavicle -4.77083e-015 -2.54444e-014
lhumerus 41.1915 -27.9753 59.925
lradius 55.1178
lwrist -22.5527
lhand -36.4193 64.2259
lfingers 7.12502
lthumb -9.51434 266.009
rfemur -29.0984 -3.07659 16.3802
rtibia 26.5471
rfoot -11.5907 -10.8108
rtoes -15.6254
lfemur -14.5108 3.99246 -19.9092
ltibia 8.55366
lfoot -7.19851 -1.9562
ltoes -7.42384
157
root 20.7437 18.573 4.75002 -4.39431 -83.7087 20.5681
lowerback 11.1507 -0.189727 -0.0239984
upperback 5.72752 -0.474675 4.69248
thorax -0.227398 -0.424804 4.96044
lowerneck -15.8797 -2.08752 -8.81363
upperneck 33.3141 -3.952 7.43395
head 14.4147 -2.09459 3.86234
rclavicle 0 9.54166e-015
rhumerus 45.8467 24.4084 -35.0344
rradius 61.9547
rwrist 6.09216
rhand -36.2658 22.018
rfingers 7.12502
rthumb -9.36626 -7.75394
lclavicle 0 9.54166e-015
lhumerus 40.8322 -27.7418 60.5274
lradius 55.006
lwrist -22.3166
lhand -36.4348 64.9477
lfingers 7.12502
lthumb -9.52937 265.288
rfemur -29.1406 -2.6857 16.013
rtibia 26.5072
rfoot -11.4636 -11.2504
rtoes -15.7348
lfemur -14.6276 3.93978 -20.1368
ltibia 8.57397
lfoot -7.1523 -2.02328
ltoes -5.39479
158
root 20.7568 18.5696 4.78611 -5.34021 -83.6838 21.4587
lowerback 11.2942 -0.288237 0.0735004
upperback 5.65465 -0.583364 4.44947
thorax -0.377284 -0.467388 4.66296
lowerneck -15.897 -1.98754 -8.59692
upperneck 33.2887 -3.8995 7.51533
head 14.3965 -2.03481 3.86525
rclavicle 9.54166e-015 -3.49861e-014
rhumerus 45.6008 24.4859 -35.3762
rradius 62.0379
rwrist 5.72021
rhand -36.2056 22.0288
rfingers 7.12502
rthumb -9.30815 -7.74571
lclavicle 9.54166e-015 -3.49861e-014
lhumerus 41.0172 -27.7899 60.0619
lradius 54.908
lwrist -21.542
lhand -36.8281 65.1578
lfingers 7.12502
lthumb -9.90875 265.095
rfemur -29.0854 -2.85707 15.7932
rtibia 26.456
rfoot -11.3447 -11.0537
rtoes -15.642
lfemur -14.615 3.91961 -20.3358
ltibia 8.57775
lfoot -7.09741 -2.08512
ltoes -3.98441
159
root 20.7703 18.5644 4.81947 -4.411 -83.8215 20.4487
lowerback 11.2993 -0.208794 0.288409
upperback 5.72147 -0.462895 4.30199
thorax -0.323977 -0.40245 4.37057
lowerneck -16.1256 -1.9702 -8.13635
upperneck 33.2623 -3.9391 7.37799
head 14.4264 -2.00361 3.7188
rclavicle -2.78299e-014 -3.33958e-014
rhumerus 45.2689 24.1888 -35.6053
rradius 62.0696
rwrist 5.22755
rhand -36.38 21.6451
rfingers 7.12502
rthumb -9.47646 -8.12178
lclavicle -2.78299e-014 -3.33958e-014
lhumerus 41.8151 -27.9538 59.1474
lradius 54.7291
lwrist -20.3631
lhand -37.3106 64.3121
lfingers 7.12502
lthumb -10.3743 265.964
rfemur -29.0688 -3.01145 15.8657
rtibia 26.4594
rfoot -11.3732 -10.7406
rtoes -15.3386
lfemur -14.4932 4.05052 -20.3024
ltibia 8.46328
lfoot -7.08087 -2.24248
ltoes -4.65428
160
root 20.7837 18.563 4.85835 -3.40639 -84.0128 19.394
lowerback 11.2328 -0.103759 0.434263
upperback 5.76858 -0.316568 4.28497
thorax -0.250579 -0.328353 4.25169
lowerneck -16.1054 -2.04569 -7.94128
upperneck 32.9519 -3.98025 7.13655
head 14.276 -2.01741 3.56608
rclavicle 7.95139e-016 2.06736e-014
rhumerus 45.3162 23.8917 -35.4897
rradius 61.8156
rwrist 4.78694
rhand -36.4926 20.8936
rfingers 7.12502
rthumb -9.5851 -8.86834
lclavicle 7.95139e-016 2.06736e-014
lhumerus 42.3892 -28.0931 58.6112
lradius 54.6382
lwrist -19.1833
lhand -37.3549 63.4983
lfingers 7.12502
lthumb -10.417 266.78
rfemur -29.0475 -2.81748 15.8334
rtibia 26.4194
rfoot -11.4435 -10.7024
rtoes -14.7636
lfemur -14.5412 4.21721 -20.3216
ltibia 8.55619
lfoot -7.14639 -2.2033
ltoes -6.25852
161
root 20.7992 18.5575 4.90775 -2.94811 -83.9525 18.8692
lowerback 11.1438 -0.121037 0.655837
upperback 5.81311 -0.32458 4.24111
thorax -0.156833 -0.328774 4.07887
lowerneck -16.1904 -2.11687 -8.11797
upperneck 32.77 -4.02926 7.24824
head 14.2263 -2.03717 3.63021
rclavicle -1.43125e-014 -6.52014e-014
rhumerus 45.4576 23.5109 -35.5313
rradius 61.3811
rwrist 4.777
rhand -36.2627 20.2132
rfingers 7.12502
rthumb -9.36328 -9.5588
lclavicle -1.43125e-014 -6.52014e-014
lhumerus 42.7474 -28.188 58.3552
lradius 54.4986
lwrist -18.3088
lhand -37.5093 63.1885
lfingers 7.12502
lthumb -10.566 267.097
rfemur -28.9174 -3.00965 15.706
rtibia 26.2476
rfoot -11.3313 -10.5259
rtoes -14.3344
lfemur -14.8012 4.11571 -20.4593
ltibia 8.96332
lfoot -7.29758 -1.9874
ltoes -8.18257
162
root 20.816 18.5606 4.95323 -2.00218 -83.9631 17.846
lowerback 11.0707 -0.188238 0.777354
upperback 5.84573 -0.408261 4.2853
thorax -0.0776138 -0.370855 4.06432
lowerneck -16.348 -2.08082 -8.13468
upperneck 32.754 -3.87891 7.05927
head 14.235 -1.99446 3.58006
rclavicle 3.97569e-015 9.54166e-015
rhumerus 45.5957 23.4807 -35.5983
rradius 61.0175
rwrist 4.77846
rhand -36.1574 20.0759
rfingers 7.12502
rthumb -9.26172 -9.7007
lclavicle 3.97569e-015 9.54166e-015
lhumerus 43.0036 -28.0437 58.2071
lradius 54.0821
lwrist -17.5669
lhand -37.8355 63.1275
lfingers 7.12502
lthumb -10.8806 267.174
rfemur -28.76 -3.23129 15.7149
rtibia 25.9936
rfoot -10.936 -10.4598
rtoes -14.3341
lfemur -14.9619 4.1117 -20.4453
ltibia 9.41246
lfoot -7.56922 -2.24376
ltoes -6.67287
163
root 20.8288 18.5766 4.9797 -0.611735 -84.4245 16.4303
lowerback 10.947 -0.11583 0.603149
upperback 5.85333 -0.335089 4.41412
thorax -0.00481206 -0.342116 4.28925
lowerneck -16.3662 -1.99586 -8.04103
upperneck 32.646 -3.59109 6.5761
head 14.1489 -1.91876 3.40858
rclavicle -2.46493e-014 3.33958e-014
rhumerus 45.9412 23.7098 -35.4292
rradius 60.6292
rwrist 4.43267
rhand -35.9724 20.523
rfingers 7.12502
rthumb -9.08317 -9.26144
lclavicle -2.46493e-014 3.33958e-014
lhumerus 43.0494 -27.7896 58.512
lradius 53.4607
lwrist -17.0257
lhand -37.8124 63.2541
lfingers 7.12502
lthumb -10.8583 267.047
rfemur -28.7141 -2.76911 15.799
rtibia 25.7816
rfoot -10.6102 -10.5681
rtoes -13.6643
lfemur -15.0015 4.57816 -20.3454
ltibia 9.74359
lfoot -7.83284 -2.59376
ltoes -3.65841
164
root 20.8448 18.5868 5.00658 0.262257 -84.769 15.4495
lowerback 10.95 -0.014531 0.494152
upperback 5.8739 -0.214028 4.43616
thorax 0.00707049 -0.285596 4.36141
lowerneck -16.5598 -1.97162 -8.19074
upperneck 32.6402 -3.47629 6.5689
head 14.1817 -1.88387 3.45193
rclavicle 1.66979e-014 -1.59028e-015
rhumerus 46.2691 23.5852 -35.0678
rradius 60.3579
rwrist 3.78117
rhand -35.5251 20.0491
rfingers 7.12502
rthumb -8.65155 -9.75367
lclavicle 1.66979e-014 -1.59028e-015
lhumerus 43.0901 -27.7327 59.0205
lradius 52.9417
lwrist -16.7852
lhand -37.8608 63.1821
lfingers 7.12502
lthumb -10.905 267.121
rfemur -28.5973 -2.30345 15.797
rtibia 25.6238
rfoot -10.5052 -10.5983
rtoes -14.2875
lfemur -14.962 4.9131 -20.3672
ltibia 9.97121
lfoot -7.99321 -2.69
ltoes -1.97703
165
root 20.865 18.5801 5.04503 -1.70432 -84.7487 17.2255
lowerback 11.1441 0.00568994 0.389238
upperback 5.847 -0.188496 4.33518
thorax -0.129 -0.270917 4.31439
lowerneck -16.8151 -2.00094 -8.38835
upperneck 32.6987 -3.5055 6.78512
head 14.2773 -1.88788 3.57447
rclavicle -7.95139e-016 1.90833e-014
rhumerus 46.3469 23.3786 -34.9396
rradius 60.0316
rwrist 3.22524
rhand -35.2231 19.2697
rfingers 7.12502
rthumb -8.3601 -10.5448
lclavicle -7.95139e-016 1.90833e-014
lhumerus 43.3533 -27.8656 58.8583
lradius 52.6953
lwrist -16.1125
lhand -37.9286 62.6296
lfingers 7.12502
lthumb -10.9704 267.677
rfemur -28.4133 -2.45071 15.5419
rtibia 25.5202
rfoot -10.3587 -10.4569
rtoes -15.7445
lfemur -14.9063 4.8621 -20.7172
ltibia 10.0488
lfoot -8.07773 -2.47246
ltoes -3.14854
166
root 20.8823 18.5716 5.08563 -3.76648 -84.7745 19.1753
lowerback 11.2458 -0.00467845 0.179395
upperback 5.74266 -0.209702 4.33045
thorax -0.291037 -0.28086 4.43303
lowerneck -16.7879 -2.00257 -8.36657
upperneck 32.5891 -3.41803 6.54803
head 14.2084 -1.87608 3.48352
rclavicle 0 -7.95139e-015
rhumerus 46.5571 23.4289 -34.8818
rradius 59.4241
rwrist 2.72136
rhand -35.0414 19.9112
rfingers 7.12502
rthumb -8.18469 -9.91027
lclavicle 0 -7.95139e-015
lhumerus 43.6582 -27.9632 58.167
lradius 52.4978
lwrist -15.0675
lhand -37.8491 62.3266
lfingers 7.12502
lthumb -10.8938 267.976
rfemur -28.3141 -2.65267 15.2518
rtibia 25.4572
rfoot -10.2645 -10.1995
rtoes -15.6077
lfemur -14.8984 5.58447 -21.2605
ltibia 10.0373
lfoot -8.23255 -2.95627
ltoes -4.65992
